SplineFontDB: 3.2
FontName: OverusedGrotesk-Light
FullName: Overused Grotesk Light
FamilyName: Overused Grotesk
Weight: Light
Copyright: Copyright (c) 2023, Bao Nguyen (RandomMaerks) (rmforbusiness@gmail.com)
UComments: "2023-7-28: Created with FontForge (http://fontforge.org)"
Version: 0.01
ItalicAngle: 0
UnderlinePosition: -100
UnderlineWidth: 50
Ascent: 800
Descent: 200
InvalidEm: 0
LayerCount: 2
Layer: 0 0 "Back" 1
Layer: 1 0 "Fore" 0
XUID: [1021 36 -67577861 30019]
StyleMap: 0x0040
FSType: 0
OS2Version: 0
OS2_WeightWidthSlopeOnly: 0
OS2_UseTypoMetrics: 1
CreationTime: 1690548111
ModificationTime: 1691074707
PfmFamily: 17
TTFWeight: 300
TTFWidth: 5
LineGap: 90
VLineGap: 90
OS2TypoAscent: 0
OS2TypoAOffset: 1
OS2TypoDescent: 0
OS2TypoDOffset: 1
OS2TypoLinegap: 90
OS2WinAscent: 0
OS2WinAOffset: 1
OS2WinDescent: 0
OS2WinDOffset: 1
HheadAscent: 0
HheadAOffset: 1
HheadDescent: 0
HheadDOffset: 1
OS2Vendor: 'Rand'
Lookup: 1 0 0 "'ss01' Style Set 1 in Latin lookup 0" { "'ss01' Style Set 1 in Latin lookup 0-1" ("ss01") } ['ss01' ('DFLT' <'dflt' > 'latn' <'dflt' > ) ]
Lookup: 1 0 0 "'ss02' Style Set 2 in Latin lookup 1" { "'ss02' Style Set 2 in Latin lookup 1-1" ("ss02") } ['ss02' ('DFLT' <'dflt' > 'latn' <'dflt' > ) ]
Lookup: 1 0 0 "'ss03' Style Set 3 in Latin lookup 2" { "'ss03' Style Set 3 in Latin lookup 2-1" ("ss03") } ['ss03' ('DFLT' <'dflt' > 'latn' <'dflt' > ) ]
Lookup: 1 0 0 "'ss04' Style Set 4 in Latin lookup 3" { "'ss04' Style Set 4 in Latin lookup 3-1" ("ss04") } ['ss04' ('DFLT' <'dflt' > 'latn' <'dflt' > ) ]
Lookup: 1 0 0 "'ss05' Style Set 5 in Latin lookup 4" { "'ss05' Style Set 5 in Latin lookup 4-1" ("ss05") } ['ss05' ('DFLT' <'dflt' > 'latn' <'dflt' > ) ]
Lookup: 1 0 0 "'ss06' Style Set 6 in Latin lookup 5" { "'ss06' Style Set 6 in Latin lookup 5-1" ("ss06") } ['ss06' ('DFLT' <'dflt' > 'latn' <'dflt' > ) ]

StartChar: n
Encoding: 110 110 0
GlifName: n
Width: 510
Flags: MW
LayerCount: 2
Fore
SplineSet
405 310 m 6
 405 414.843374399 347.420110005 460 258.725585938 460 c 4
 171.905739736 460 105 400.015498992 105 316 c 5
 76 322 l 5
 76.5010736914 438.786388579 177.115581642 510 269.259765625 510 c 4
 377.089305288 510 455 442.968462776 455 320 c 6
 455 0 l 5
 405 0 l 5
 405 310 l 6
55 500 m 5
 105 500 l 5
 105 0 l 5
 55 0 l 5
 55 500 l 5
EndSplineSet
EndChar

StartChar: h
Encoding: 104 104 1
GlifName: h
Width: 510
Flags: MW
LayerCount: 2
Fore
SplineSet
405 310 m 2
 405 414.843374399 347.420110005 460 258.725585938 460 c 0
 171.905739736 460 105 400.015498992 105 316 c 1
 76 322 l 1
 76.5010736914 438.786388579 177.115581642 510 269.259765625 510 c 0
 377.089305288 510 455 442.968462776 455 320 c 2
 455 0 l 1
 405 0 l 1
 405 310 l 2
55 700 m 1
 105 700 l 1
 105 0 l 1
 55 0 l 1
 55 700 l 1
EndSplineSet
EndChar

StartChar: m
Encoding: 109 109 2
GlifName: m
Width: 820
Flags: MW
LayerCount: 2
Fore
SplineSet
715 310 m 6
 715 414.843052455 661.356649623 460 578.725585938 460 c 0
 497.553159432 460 435 400.016091418 435 316 c 5
 403 322 l 5
 403.48247023 438.786253511 500.453516256 510 589.259765625 510 c 0
 691.283606651 510 765 442.968098958 765 320 c 6
 765 0 l 1
 715 0 l 1
 715 310 l 6
385 310 m 6
 385 414.843052455 331.356649623 460 248.725585938 460 c 0
 167.553159432 460 105 400.016091418 105 316 c 5
 76 322 l 5
 76.4746526368 438.786253511 171.883121221 510 259.259765625 510 c 0
 361.283606651 510 435 442.968098958 435 320 c 6
 435 0 l 1
 385 0 l 1
 385 310 l 6
55 500 m 1
 105 500 l 1
 105 0 l 1
 55 0 l 1
 55 500 l 1
EndSplineSet
EndChar

StartChar: u
Encoding: 117 117 3
GlifName: u
Width: 502
Flags: MW
LayerCount: 2
Fore
SplineSet
105 200 m 6
 105 88.1674107143 161.005728984 40 247.274414062 40 c 0
 331.835517047 40 397 104.149457789 397 194 c 5
 426 188 l 5
 425.509712358 65.0017117275 326.977183589 -10 236.740234375 -10 c 0
 131.232973654 -10 55 60.5598958333 55 190 c 6
 55 500 l 1
 105 500 l 1
 105 200 l 6
447 0 m 1
 397 0 l 1
 397 500 l 1
 447 500 l 1
 447 0 l 1
EndSplineSet
EndChar

StartChar: i
Encoding: 105 105 4
GlifName: i
Width: 160
Flags: MW
LayerCount: 2
Fore
SplineSet
48 643 m 1
 112 643 l 1
 112 573 l 1
 48 573 l 1
 48 643 l 1
55 500 m 5
 105 500 l 5
 105 0 l 5
 55 0 l 5
 55 500 l 5
EndSplineSet
Substitution2: "'ss03' Style Set 3 in Latin lookup 2-1" i.ss03
EndChar

StartChar: l
Encoding: 108 108 5
GlifName: l
Width: 160
Flags: MW
LayerCount: 2
Fore
SplineSet
55 700 m 5
 105 700 l 5
 105 0 l 5
 55 0 l 5
 55 700 l 5
EndSplineSet
Substitution2: "'ss02' Style Set 2 in Latin lookup 1-1" l.ss02
EndChar

StartChar: o
Encoding: 111 111 6
GlifName: o
Width: 545
Flags: MW
LayerCount: 2
Fore
SplineSet
45 252 m 4
 45 406.708984375 136.280498798 510 273 510 c 4
 409.101689878 510 500 406.688476562 500 252 c 4
 500 96.1123046875 409.101689878 -8 273 -8 c 4
 136.280498798 -8 45 96.0908203125 45 252 c 4
447 252 m 4
 447 383.505859375 383.008966619 460 273 460 c 4
 162.328377016 460 98 383.540039062 98 252 c 4
 98 119.194335938 162.328377016 42 273 42 c 4
 383.008966619 42 447 119.229492188 447 252 c 4
EndSplineSet
EndChar

StartChar: c
Encoding: 99 99 7
GlifName: c
Width: 537
Flags: MW
LayerCount: 2
Fore
SplineSet
45 252 m 4
 45 407.12890625 135.510638398 510 272 510 c 4
 394.017285156 510 483.46640625 432.340820312 492 319 c 5
 439 319 l 5
 435.06818665 405.297851562 370.277582908 460 272 460 c 4
 161.359894988 460 98 384.258789062 98 252 c 4
 98 118.745117188 161.589399858 42 272 42 c 4
 369.227337015 42 433.690146821 92.953125 439 174 c 5
 492 174 l 5
 480.961588542 64.3525390625 393.501736111 -8 272 -8 c 4
 135.675559518 -8 45 95.857421875 45 252 c 4
EndSplineSet
EndChar

StartChar: e
Encoding: 101 101 8
GlifName: e
Width: 543
Flags: MW
LayerCount: 2
Fore
SplineSet
45 252 m 0
 45 410.641601562 132.803635817 510 273 510 c 4
 404.018125953 510 498 408.083007812 498 266 c 6
 498 236 l 5
 89 236 l 1
 89 284 l 1
 444 284 l 5
 434.742439725 391.098632812 367.799584799 460 273 460 c 4
 158.280840474 460 98 388.350585938 98 252 c 0
 98 114.61328125 160.58544012 42 279 42 c 4
 369.755580357 42 424.839285714 87.2392578125 439 155 c 5
 492 155 l 5
 469.897283841 51.2998046875 400.446385201 -8 279 -8 c 4
 135.286096305 -8 45 92.3173828125 45 252 c 0
EndSplineSet
EndChar

StartChar: a
Encoding: 97 97 9
GlifName: a
Width: 501
Flags: HMW
LayerCount: 2
Fore
SplineSet
445 138 m 2
 445 79.5353752329 448.974903606 33.823983768 457 0 c 1
 405 0 l 1
 398.136910288 38.0940370029 395 78.8738707422 395 130 c 2
 395 336 l 2
 395 405.822559695 332.958092554 460 253 460 c 0
 161.365716821 460 112.020970587 421.182132962 103 342 c 1
 49 342 l 1
 55.9464123059 444.489203782 135.105291069 510 252 510 c 0
 361.703704527 510 445 434.472270944 445 335 c 2
 445 138 l 2
430 220 m 1
 430 92.3329643024 332.116295015 -10 210 -10 c 0
 113.317707099 -10 45 50.4508196149 45 136 c 0
 45 212.623671494 98.3913852418 262.985758283 186 269 c 2
 331 278.954101562 l 2
 377.117524048 282.120022377 395 297.5005998 395 334 c 1
 395 234 l 1
 201 221 l 2
 131.881126899 216.368322937 97 187.859709605 97 136 c 0
 97 77.2328522334 144.704591924 40 220 40 c 0
 321.08767731 40 395 116.024103338 395 220 c 1
 430 220 l 1
EndSplineSet
Substitution2: "'ss01' Style Set 1 in Latin lookup 0-1" a.ss01
EndChar

StartChar: s
Encoding: 115 115 10
GlifName: s
Width: 490
Flags: HMW
LayerCount: 2
Fore
SplineSet
280 221 m 2
 205 231 l 2
 105.240174672 244.108537435 50 283.01245471 50 367 c 0
 50 453.843261719 121.238242629 509 237 509 c 0
 348.820354503 509 422.949113743 449.069335938 433 350 c 1
 381 350 l 1
 368.330331308 425.122070312 323.282154225 460 236 460 c 0
 153.833333333 460 100 424.112633866 100 369 c 0
 100 315.139807413 136.88209607 294.392099116 209 285 c 2
 284 275 l 2
 391.76579315 261.1796875 445 215.435546875 445 128 c 0
 445 45.4697265625 371.490373884 -8 260 -8 c 0
 133.457055069 -8 56.0572599085 55.4248046875 45 150 c 1
 99 150 l 1
 112.2786544 75.4208984375 164.065198396 41 261 41 c 0
 341.400422127 41 395 75.0439453125 395 128 c 0
 395 181.666992188 356.666666667 212.142578125 280 221 c 2
EndSplineSet
EndChar

StartChar: b
Encoding: 98 98 11
GlifName: b
Width: 552
Flags: MW
LayerCount: 2
Fore
SplineSet
55 700 m 1
 105 700 l 1
 105 0 l 1
 55 0 l 1
 55 700 l 1
72 252 m 0
 72 406.708984375 156.473791312 510 283 510 c 0
 417.302849265 510 507 406.688476562 507 252 c 0
 507 96.1123046875 417.302849265 -8 283 -8 c 0
 156.473791312 -8 72 96.0908203125 72 252 c 0
454 252 m 0
 454 383.505859375 390.010070008 460 280 460 c 0
 169.328377016 460 105 383.541015625 105 252 c 0
 105 119.194335938 169.328377016 42 280 42 c 0
 390.010070008 42 454 119.229492188 454 252 c 0
EndSplineSet
EndChar

StartChar: d
Encoding: 100 100 12
GlifName: d
Width: 552
Flags: MW
LayerCount: 2
Fore
SplineSet
497 700 m 5
 447 700 l 5
 447 0 l 5
 497 0 l 5
 497 700 l 5
480 252 m 4
 480 406.708984375 395.526208688 510 269 510 c 4
 134.697150735 510 45 406.688476562 45 252 c 4
 45 96.1123046875 134.697150735 -8 269 -8 c 4
 395.526208688 -8 480 96.0908203125 480 252 c 4
98 252 m 4
 98 383.505859375 161.991033381 460 272 460 c 4
 382.671622984 460 447 383.540039062 447 252 c 4
 447 119.194335938 382.671622984 42 272 42 c 4
 161.991033381 42 98 119.229492188 98 252 c 4
EndSplineSet
EndChar

StartChar: p
Encoding: 112 112 13
GlifName: p
Width: 552
Flags: MW
LayerCount: 2
Fore
SplineSet
55 500 m 1
 105 500 l 1
 105 -163 l 1
 55 -163 l 1
 55 500 l 1
72 252 m 0
 72 406.708984375 156.473791312 510 283 510 c 4
 417.302849265 510 507 406.688476562 507 252 c 4
 507 96.1123046875 417.302849265 -8 283 -8 c 4
 156.473791312 -8 72 96.0908203125 72 252 c 0
454 252 m 4
 454 383.505859375 390.010070008 460 280 460 c 4
 169.328377016 460 105 383.541015625 105 252 c 0
 105 119.194335938 169.328377016 42 280 42 c 4
 390.010070008 42 454 119.229492188 454 252 c 4
EndSplineSet
EndChar

StartChar: q
Encoding: 113 113 14
GlifName: q
Width: 552
Flags: MW
LayerCount: 2
Fore
SplineSet
497 500 m 5
 447 500 l 5
 447 -163 l 5
 497 -163 l 5
 497 500 l 5
480 252 m 4
 480 406.708984375 395.526208688 510 269 510 c 4
 134.697150735 510 45 406.688476562 45 252 c 0
 45 96.1123046875 134.697150735 -8 269 -8 c 4
 395.526208688 -8 480 96.0908203125 480 252 c 4
98 252 m 0
 98 383.505859375 161.991033381 460 272 460 c 4
 382.671622984 460 447 383.540039062 447 252 c 4
 447 119.194335938 382.671622984 42 272 42 c 4
 161.991033381 42 98 119.229492188 98 252 c 0
EndSplineSet
EndChar

StartChar: g
Encoding: 103 103 15
GlifName: g
Width: 552
Flags: MW
LayerCount: 2
Fore
SplineSet
98 259 m 0
 98 386.080078125 161.991033381 460 272 460 c 0
 382.671622984 460 447 386.114257812 447 259 c 0
 447 131.252929688 382.671622984 57 272 57 c 0
 161.991033381 57 98 131.288085938 98 259 c 0
480 259 m 0
 480 409.51171875 395.526208688 510 269 510 c 0
 134.697150735 510 45 409.491210938 45 259 c 0
 45 107.909179688 134.697150735 7 269 7 c 0
 395.526208688 7 480 107.888671875 480 259 c 0
497 500 m 1
 447 500 l 1
 447 -6 l 2
 447 -92.9333938238 387.064860026 -143 283 -143 c 0
 181.114761845 -143 116.950667843 -101.697577722 108 -36 c 5
 55 -36 l 5
 69.728496845 -130.586116869 157.079326923 -193 283 -193 c 0
 411.517849952 -193 497 -120.299407249 497 -11 c 2
 497 500 l 1
EndSplineSet
EndChar

StartChar: t
Encoding: 116 116 16
GlifName: t
Width: 312
Flags: HMW
LayerCount: 2
Fore
SplineSet
35 500 m 1
 277 500 l 1
 277 452 l 1
 35 452 l 1
 35 500 l 1
277 48 m 1
 277 0 l 1
 235 0 l 2
 185.378798738 0 131 27.708984375 131 118 c 2
 131 610 l 1
 181 610 l 1
 181 124 l 2
 181 62.4443359375 205.122477213 48 236 48 c 2
 277 48 l 1
EndSplineSet
Substitution2: "'ss08' Style Set 8 in Latin lookup 7-1" t.ss08
EndChar

StartChar: r
Encoding: 114 114 17
GlifName: r
Width: 304
Flags: MW
LayerCount: 2
Fore
SplineSet
269 456 m 1
 250 456 l 2
 168.59693287 456 105 398.280498798 105 316 c 5
 76 322 l 5
 76 438.607816889 166.457258915 510 249 510 c 2
 269 510 l 1
 269 456 l 1
55 500 m 1
 105 500 l 1
 105 0 l 1
 55 0 l 1
 55 500 l 1
EndSplineSet
EndChar

StartChar: v
Encoding: 118 118 19
GlifName: v
Width: 531
Flags: MW
LayerCount: 2
Fore
SplineSet
35 500 m 5
 92 500 l 5
 267 66 l 5
 438 500 l 5
 496 500 l 5
 294 0 l 5
 237 0 l 5
 35 500 l 5
EndSplineSet
EndChar

StartChar: f
Encoding: 102 102 20
GlifName: f
Width: 312
Flags: MW
LayerCount: 2
Fore
SplineSet
35 452 m 1
 35 500 l 1
 277 500 l 1
 277 452 l 1
 35 452 l 1
277 652 m 1
 236 652 l 2
 196.333333333 652 166 638 166 576 c 6
 166 0 l 5
 116 0 l 5
 116 582 l 6
 116 672 178.229357798 700 235 700 c 2
 277 700 l 1
 277 652 l 1
EndSplineSet
EndChar

StartChar: k
Encoding: 107 107 21
GlifName: k
Width: 467
Flags: MW
LayerCount: 2
Fore
SplineSet
55 700 m 5
 105 700 l 5
 105 0 l 5
 55 0 l 5
 55 700 l 5
359 500 m 5
 424 500 l 5
 200.904296875 251 l 5
 432 0 l 5
 367 0 l 5
 166 215 l 5
 104 145 l 5
 75 180 l 5
 359 500 l 5
EndSplineSet
EndChar

StartChar: j
Encoding: 106 106 22
GlifName: j
Width: 160
Flags: MW
LayerCount: 2
Fore
SplineSet
-36 -106 m 5
 -5 -106 l 6
 29 -106 55 -92 55 -30 c 6
 55 500 l 5
 105 500 l 5
 105 -36 l 6
 105 -126 48 -154 -4 -154 c 6
 -36 -154 l 5
 -36 -106 l 5
48 643 m 1
 112 643 l 1
 112 573 l 1
 48 573 l 1
 48 643 l 1
EndSplineSet
Substitution2: "'ss03' Style Set 3 in Latin lookup 2-1" j.ss03
EndChar

StartChar: w
Encoding: 119 119 23
GlifName: w
Width: 749
Flags: HMW
LayerCount: 2
Fore
SplineSet
35 500 m 1
 92 500 l 1
 208 71 l 1
 345 500 l 1
 402 500 l 1
 533 71 l 1
 657 500 l 1
 714 500 l 1
 560 0 l 1
 507 0 l 1
 374 433 l 1
 235 0 l 1
 182 0 l 1
 35 500 l 1
EndSplineSet
EndChar

StartChar: x
Encoding: 120 120 24
GlifName: x
Width: 497
Flags: MW
LayerCount: 2
Fore
SplineSet
35 500 m 5
 97 500 l 5
 245 280 l 5
 400 500 l 5
 462 500 l 5
 290.904296875 253 l 5
 462 0 l 5
 400 0 l 5
 252 229 l 5
 97 0 l 5
 35 0 l 5
 206.095703125 255 l 5
 35 500 l 5
EndSplineSet
EndChar

StartChar: y
Encoding: 121 121 25
GlifName: y
Width: 531
Flags: HMW
LayerCount: 2
Fore
SplineSet
61 -102 m 1
 132 -102 l 2
 181.744235537 -102 206.573257128 -82.9820260157 226 -30 c 2
 237 0 l 1
 35 500 l 1
 92 500 l 1
 267 66 l 1
 438 500 l 1
 496 500 l 1
 282 -36 l 2
 248.379517892 -120.208310326 212.296866207 -154 156 -154 c 2
 61 -154 l 1
 61 -102 l 1
EndSplineSet
Substitution2: "'ss07' Style Set 7 in Latin lookup 6-1" y.ss07
EndChar

StartChar: z
Encoding: 122 122 26
GlifName: z
Width: 462
Flags: MW
LayerCount: 2
Fore
SplineSet
45 500 m 1
 417 500 l 1
 417 442 l 1
 102 48 l 1
 417 48 l 1
 417 0 l 1
 45 0 l 1
 45 58 l 1
 359 452 l 1
 45 452 l 1
 45 500 l 1
EndSplineSet
EndChar

StartChar: H
Encoding: 72 72 27
GlifName: H_
Width: 610
Flags: MW
LayerCount: 2
Fore
SplineSet
55 650 m 5
 105 650 l 5
 105 360 l 5
 505 360 l 5
 505 650 l 5
 555 650 l 5
 555 0 l 5
 505 0 l 5
 505 312 l 5
 105 312 l 5
 105 0 l 5
 55 0 l 5
 55 650 l 5
EndSplineSet
EndChar

StartChar: I
Encoding: 73 73 28
GlifName: I_
Width: 160
Flags: MW
LayerCount: 2
Fore
SplineSet
55 650 m 5
 105 650 l 5
 105 0 l 5
 55 0 l 5
 55 650 l 5
EndSplineSet
EndChar

StartChar: N
Encoding: 78 78 29
GlifName: N_
Width: 610
Flags: MW
LayerCount: 2
Fore
SplineSet
505 650 m 5
 555 650 l 5
 555 0 l 5
 498 0 l 5
 105 591 l 5
 105 0 l 5
 55 0 l 5
 55 650 l 5
 125 650 l 5
 505 78 l 5
 505 650 l 5
EndSplineSet
EndChar

StartChar: M
Encoding: 77 77 30
GlifName: M_
Width: 726
Flags: HMW
LayerCount: 2
Fore
SplineSet
388 0 m 1
 338 0 l 1
 105 581 l 1
 105 0 l 1
 55 0 l 1
 55 650 l 1
 126 650 l 1
 363 72 l 1
 596 650 l 1
 671 650 l 1
 671 0 l 1
 621 0 l 1
 621 581 l 1
 388 0 l 1
EndSplineSet
EndChar

StartChar: L
Encoding: 76 76 31
GlifName: L_
Width: 470
Flags: MW
LayerCount: 2
Fore
SplineSet
435 0 m 5
 55 0 l 5
 55 650 l 5
 105 650 l 5
 105 48 l 5
 435 48 l 5
 435 0 l 5
EndSplineSet
EndChar

StartChar: E
Encoding: 69 69 32
GlifName: E_
Width: 530
Flags: MW
LayerCount: 2
Fore
SplineSet
485 650 m 5
 485 602 l 5
 105 602 l 5
 105 357 l 5
 457 357 l 5
 457 309 l 5
 105 309 l 5
 105 48 l 5
 485 48 l 5
 485 0 l 5
 55 0 l 5
 55 650 l 5
 485 650 l 5
EndSplineSet
EndChar

StartChar: F
Encoding: 70 70 33
GlifName: F_
Width: 530
Flags: MW
LayerCount: 2
Fore
SplineSet
485 650 m 1
 485 602 l 1
 105 602 l 1
 105 337 l 5
 457 337 l 5
 457 289 l 5
 105 289 l 5
 105 0 l 1
 55 0 l 1
 55 650 l 1
 485 650 l 1
EndSplineSet
EndChar

StartChar: T
Encoding: 84 84 34
GlifName: T_
Width: 520
Flags: MW
LayerCount: 2
Fore
SplineSet
485 650 m 5
 485 602 l 5
 285 602 l 5
 285 0 l 5
 235 0 l 5
 235 602 l 5
 35 602 l 1
 35 650 l 1
 485 650 l 5
EndSplineSet
EndChar

StartChar: O
Encoding: 79 79 35
GlifName: O_
Width: 665
Flags: MW
LayerCount: 2
Fore
SplineSet
45 317 m 4
 45 522.678998607 160.301682692 660 333 660 c 4
 505.075704824 660 620 522.651734344 620 317 c 4
 620 122.140380859 505.075704824 -8 333 -8 c 4
 160.301682692 -8 45 122.113525391 45 317 c 4
567 317 m 4
 567 502.2462346 480.943093039 610 333 610 c 4
 184.383820564 610 98 502.294381948 98 317 c 4
 98 143.087820871 184.383820564 42 333 42 c 4
 480.943093039 42 567 143.133858818 567 317 c 4
EndSplineSet
EndChar

StartChar: C
Encoding: 67 67 36
GlifName: C_
Width: 637
Flags: MW
LayerCount: 2
Fore
SplineSet
45 327 m 4
 45 527.224518532 155.446902362 660 322 660 c 4
 471.748486328 660 581.526953125 570.143043398 592 439 c 5
 539 439 l 5
 533.890997024 543.659096575 449.702008928 610 322 610 c 4
 179.566761364 610 98 506.948256272 98 327 c 4
 98 146.154087612 179.862215909 42 322 42 c 4
 448.337318157 42 532.10037042 108.393465909 539 214 c 5
 592 214 l 5
 578.452858665 80.2541959993 471.115767046 -8 322 -8 c 4
 155.64814972 -8 45 125.81629357 45 327 c 4
EndSplineSet
EndChar

StartChar: G
Encoding: 71 71 37
GlifName: G_
Width: 647
Flags: MW
LayerCount: 2
Fore
SplineSet
542 322 m 1
 592 332 l 1
 592 0 l 1
 552 0 l 1
 542 322 l 1
320 332 m 1
 592 332 l 1
 592 284 l 1
 320 284 l 1
 320 332 l 1
45 327 m 0
 45 527.224500265 155.446887167 660 322 660 c 0
 471.747723613 660 581.526899782 570.143711358 592 439 c 1
 539 439 l 1
 533.891036905 543.658279617 449.703005776 610 322 610 c 0
 179.567109648 610 98 506.948696292 98 327 c 0
 98 146.154569552 179.861837121 42 322 42 c 0
 447.571485103 42 529 148.997855324 529 314 c 1
 569 314 l 1
 569 126.729973697 465.651231357 -8 322 -8 c 0
 155.64812459 -8 45 125.816323962 45 327 c 0
EndSplineSet
Substitution2: "'ss04' Style Set 4 in Latin lookup 3-1" G.ss04
EndChar

StartChar: Q
Encoding: 81 81 38
GlifName: Q_
Width: 665
Flags: MW
LayerCount: 2
Fore
SplineSet
629 23 m 5
 600 -18 l 5
 320 186 l 1
 349 227 l 1
 629 23 l 5
45 317 m 0
 45 523 160 660 333 660 c 0
 505 660 620 523 620 317 c 0
 620 122 505 -8 333 -8 c 0
 160 -8 45 122 45 317 c 0
567 317 m 0
 567 502 481 610 333 610 c 0
 184 610 98 502 98 317 c 0
 98 143 184 42 333 42 c 0
 481 42 567 143 567 317 c 0
EndSplineSet
EndChar

StartChar: S
Encoding: 83 83 39
GlifName: S_
Width: 570
Flags: MW
LayerCount: 2
Fore
SplineSet
320 296 m 6
 245 306 l 6
 119.49570362 322.096512879 50 377.129104393 50 473 c 4
 50 586.752441407 136.476369395 659 277 659 c 4
 411.640835014 659 500.897912466 583.992439319 513 460 c 5
 461 460 l 5
 444.83525029 560.390403053 387.359989873 607 276 607 c 4
 169.666666666 607 100 554.943600773 100 475 c 4
 100 409.286087391 150.416810224 372.858230933 249 360 c 6
 324 350 l 6
 458.539903249 333.26519983 525 275.452566964 525 172 c 4
 525 62.7687557445 435.59640067 -8 300 -8 c 4
 149.914181593 -8 58.1144245426 71.4817172666 45 190 c 5
 99 190 l 5
 115.557334499 89.4208446818 180.130679481 43 301 43 c 4
 405.400548135 43 475 93.4789533944 475 172 c 4
 475 240.889322917 423.333333334 284.190104167 320 296 c 6
EndSplineSet
EndChar

StartChar: J
Encoding: 74 74 40
GlifName: J_
Width: 312
Flags: MW
LayerCount: 2
Fore
SplineSet
26 48 m 1
 87 48 l 2
 155 48 207 76.7368421053 207 204 c 2
 207 650 l 1
 257 650 l 1
 257 198 l 2
 257 46.9830508475 168.623853211 0 88 0 c 2
 26 0 l 1
 26 48 l 1
EndSplineSet
Substitution2: "'ss06' Style Set 6 in Latin lookup 5-1" J.ss06
EndChar

StartChar: V
Encoding: 86 86 41
GlifName: V_
Width: 616
Flags: MW
LayerCount: 2
Fore
SplineSet
35 650 m 1
 92 650 l 1
 309 66 l 1
 523 650 l 1
 581 650 l 1
 336 0 l 1
 279 0 l 1
 35 650 l 1
EndSplineSet
EndChar

StartChar: W
Encoding: 87 87 42
GlifName: W_
Width: 955
Flags: MW
LayerCount: 2
Fore
SplineSet
35 650 m 1
 92 650 l 1
 250 71 l 1
 448 650 l 1
 505 650 l 1
 697 71 l 1
 863 650 l 1
 920 650 l 1
 724 0 l 1
 671 0 l 1
 477 583 l 1
 277 0 l 1
 224 0 l 1
 35 650 l 1
EndSplineSet
EndChar

StartChar: X
Encoding: 88 88 43
GlifName: X_
Width: 567
Flags: MW
LayerCount: 2
Fore
SplineSet
35 650 m 1
 99 650 l 1
 282 350 l 1
 470 650 l 1
 532 650 l 1
 325.904296875 323 l 1
 532 0 l 1
 468 0 l 1
 285 299 l 1
 95 0 l 1
 35 0 l 1
 241.095703125 325 l 1
 35 650 l 1
EndSplineSet
EndChar

StartChar: Y
Encoding: 89 89 44
GlifName: Y_
Width: 567
Flags: MW
LayerCount: 2
Fore
SplineSet
257 225 m 1
 35 650 l 1
 97 650 l 1
 282 288 l 1
 472 650 l 1
 532 650 l 1
 307 225 l 1
 307 0 l 1
 257 0 l 1
 257 225 l 1
EndSplineSet
EndChar

StartChar: A
Encoding: 65 65 45
GlifName: A_
Width: 616
Flags: MW
LayerCount: 2
Fore
SplineSet
144 236 m 1
 466 236 l 1
 466 188 l 1
 144 188 l 1
 144 236 l 1
581 0 m 1
 524 0 l 1
 307 584 l 1
 93 0 l 1
 35 0 l 1
 280 650 l 1
 337 650 l 1
 581 0 l 1
EndSplineSet
EndChar

StartChar: Z
Encoding: 90 90 46
GlifName: Z_
Width: 552
Flags: MW
LayerCount: 2
Fore
SplineSet
45 650 m 5
 507 650 l 5
 507 592 l 5
 102 48 l 5
 507 48 l 5
 507 0 l 5
 45 0 l 5
 45 58 l 5
 449 602 l 5
 45 602 l 5
 45 650 l 5
EndSplineSet
EndChar

StartChar: U
Encoding: 85 85 47
GlifName: U_
Width: 579
Flags: MW
LayerCount: 2
Fore
SplineSet
50 650 m 1
 100 650 l 1
 100 247 l 2
 100 117.356427557 169.842212434 42 290 42 c 0
 409.492713341 42 479 117.390642756 479 247 c 2
 479 650 l 1
 529 650 l 1
 529 247 l 2
 529 94.1103365385 433.296778719 -8 290 -8 c 0
 146.084703947 -8 50 94.0888822115 50 247 c 2
 50 650 l 1
EndSplineSet
EndChar

StartChar: R
Encoding: 82 82 48
GlifName: R_
Width: 559
Flags: MW
LayerCount: 2
Fore
SplineSet
272 279 m 1
 322 299 l 1
 439 299 483 262 496 153 c 2
 514 0 l 1
 464 0 l 1
 447 146 l 2
 436 240 385 279 272 279 c 1
312 602 m 2
 105 602 l 1
 105 327 l 1
 312 327 l 2
 406 327 461 376 461 461 c 0
 461 550 406 602 312 602 c 2
322 289 m 1
 314 279 l 1
 105 279 l 1
 105 0 l 1
 55 0 l 1
 55 650 l 1
 317 650 l 2
 435 650 514 575 514 461 c 0
 514 358 437 289 322 289 c 1
EndSplineSet
Substitution2: "'ss05' Style Set 5 in Latin lookup 4-1" R.ss05
EndChar

StartChar: B
Encoding: 66 66 49
GlifName: B_
Width: 589
Flags: MW
LayerCount: 2
Fore
SplineSet
347 650 m 2
 447 650 514 584 514 484 c 0
 514 414 480 360 425 335 c 1
 498 311 544 251 544 171 c 0
 544 68 473 0 367 -0 c 2
 55 0 l 1
 55 650 l 1
 347 650 l 2
342 602 m 2
 105 602 l 1
 105 357 l 1
 342 357 l 2
 417.157894737 357 461 404 461 484 c 0
 461 559 417.157894737 602 342 602 c 2
342 309 m 2
 105 309 l 1
 105 48 l 1
 362 48 l 2
 443.14516129 48 491 93 491 171 c 0
 491 258 436.159722222 309 342 309 c 2
EndSplineSet
EndChar

StartChar: D
Encoding: 68 68 50
GlifName: D_
Width: 609
Flags: MW
LayerCount: 2
Fore
SplineSet
105 602 m 1
 105 48 l 1
 297 48 l 2
 432.298384233 48 511 145.456263952 511 313 c 4
 511 495.717275766 424.943093039 602 277 602 c 2
 105 602 l 1
287 650 m 2
 453.080035666 650 564 515.054327912 564 313 c 4
 564 125.335197566 461.088697351 0 307 0 c 2
 55 0 l 1
 55 650 l 1
 287 650 l 2
EndSplineSet
EndChar

StartChar: P
Encoding: 80 80 51
GlifName: P_
Width: 554
Flags: MW
LayerCount: 2
Fore
SplineSet
302 602 m 6
 105 602 l 5
 105 297 l 5
 302 297 l 6
 402.28930636 297 461 352.018197185 461 446 c 4
 461 544.839659049 402.740421723 602 302 602 c 6
312 249 m 6
 105 249 l 5
 105 0 l 5
 55 0 l 5
 55 650 l 5
 307 650 l 6
 431.325686092 650 514 568.523864555 514 446 c 4
 514 333.390793246 437.467308448 249 312 249 c 6
EndSplineSet
EndChar

StartChar: K
Encoding: 75 75 52
GlifName: K_
Width: 539
Flags: MW
LayerCount: 2
Fore
SplineSet
55 650 m 1
 105 650 l 1
 105 0 l 1
 55 0 l 1
 55 650 l 1
419 650 m 1
 486 650 l 1
 200.904296875 337 l 5
 504 0 l 5
 439 0 l 5
 166 301 l 5
 104 231 l 1
 75 266 l 1
 419 650 l 1
EndSplineSet
EndChar

StartChar: four
Encoding: 52 52 53
GlifName: four
Width: 532
Flags: MW
LayerCount: 2
Fore
SplineSet
404 172 m 1
 404 0 l 1
 354 0 l 1
 354 172 l 1
 35 172 l 1
 35 229 l 1
 344 650 l 1
 404 650 l 1
 404 219 l 1
 507 219 l 1
 507 172 l 1
 404 172 l 1
354 219 m 1
 354 587.948242188 l 1
 88 219 l 1
 354 219 l 1
EndSplineSet
EndChar

StartChar: three
Encoding: 51 51 54
GlifName: three
Width: 517
Flags: HMW
LayerCount: 2
Fore
SplineSet
335 352 m 1
 335 302 l 1
 216 302 l 1
 216 352 l 1
 335 352 l 1
285 312 m 1
 285 352 l 1
 363.683416193 352 409 396.585258557 409 474 c 0
 409 559.205181415 352.922851562 608 255 608 c 0
 168.4921875 608 111.4609375 556.789478058 108 476 c 1
 55 476 l 1
 62.7578125 584.000153386 144.075195313 658 255 658 c 0
 379.463867188 658 462 584.634568798 462 474 c 0
 462 376.711162861 391.297030684 312 285 312 c 1
285 342 m 1
 397.302512644 342 472 275.291579026 472 175 c 0
 472 64.966706032 385.476614395 -8 255 -8 c 0
 138.528955078 -8 53.145703125 64.7800689223 45 171 c 1
 98 171 l 1
 101.696375425 92.0466464433 162.607302296 42 255 42 c 0
 359.281478287 42 419 90.4306781479 419 175 c 0
 419 255.587476748 370.028852983 302 285 302 c 1
 285 342 l 1
EndSplineSet
EndChar

StartChar: period
Encoding: 46 46 55
GlifName: period
Width: 160
Flags: MW
LayerCount: 2
Fore
SplineSet
48 70 m 5
 112 70 l 5
 112 0 l 5
 48 0 l 5
 48 70 l 5
EndSplineSet
Substitution2: "'ss03' Style Set 3 in Latin lookup 2-1" period.ss03
EndChar

StartChar: comma
Encoding: 44 44 56
GlifName: comma
Width: 160
Flags: HMW
LayerCount: 2
Fore
SplineSet
48 70 m 1
 112 70 l 1
 112 0 l 1
 82 -125 l 1
 41 -125 l 1
 87 0 l 1
 48 0 l 1
 48 70 l 1
EndSplineSet
Substitution2: "'ss03' Style Set 3 in Latin lookup 2-1" comma.ss03
EndChar

StartChar: colon
Encoding: 58 58 57
GlifName: colon
Width: 160
Flags: MW
LayerCount: 2
Fore
SplineSet
48 480 m 1
 112 480 l 1
 112 410 l 1
 48 410 l 1
 48 480 l 1
48 70 m 1
 112 70 l 5
 112 0 l 1
 48 0 l 1
 48 70 l 1
EndSplineSet
Substitution2: "'ss03' Style Set 3 in Latin lookup 2-1" colon.ss03
EndChar

StartChar: semicolon
Encoding: 59 59 58
GlifName: semicolon
Width: 160
Flags: MW
LayerCount: 2
Fore
SplineSet
48 480 m 1
 112 480 l 1
 112 410 l 1
 48 410 l 1
 48 480 l 1
48 70 m 1
 112 70 l 5
 112 0 l 5
 82 -125 l 1
 41 -125 l 1
 87 0 l 5
 48 0 l 1
 48 70 l 1
EndSplineSet
Substitution2: "'ss03' Style Set 3 in Latin lookup 2-1" semicolon.ss03
EndChar

StartChar: hyphen
Encoding: 45 45 59
GlifName: hyphen
Width: 462
Flags: MW
LayerCount: 2
Fore
SplineSet
35 300 m 5
 427 300 l 5
 427 252 l 5
 35 252 l 5
 35 300 l 5
EndSplineSet
EndChar

StartChar: plus
Encoding: 43 43 60
GlifName: plus
Width: 546
Flags: MW
LayerCount: 2
Fore
SplineSet
297 300 m 1
 511 300 l 1
 511 252 l 1
 297 252 l 1
 297 38 l 1
 249 38 l 1
 249 252 l 1
 35 252 l 1
 35 300 l 1
 249 300 l 1
 249 514 l 1
 297 514 l 1
 297 300 l 1
EndSplineSet
EndChar

StartChar: equal
Encoding: 61 61 61
GlifName: equal
Width: 546
Flags: MW
LayerCount: 2
Fore
SplineSet
511 165 m 5
 511 117 l 5
 35 117 l 5
 35 165 l 5
 511 165 l 5
511 425 m 5
 511 377 l 5
 35 377 l 5
 35 425 l 5
 511 425 l 5
EndSplineSet
EndChar

StartChar: quotesingle
Encoding: 39 39 62
GlifName: quotesingle
Width: 160
Flags: MW
LayerCount: 2
Fore
SplineSet
55 700 m 5
 105 700 l 5
 95 500 l 5
 55 500 l 5
 55 700 l 5
EndSplineSet
EndChar

StartChar: quotedbl
Encoding: 34 34 63
GlifName: quotedbl
Width: 270
Flags: MW
LayerCount: 2
Fore
SplineSet
165 700 m 5
 215 700 l 5
 205 500 l 5
 165 500 l 5
 165 700 l 5
55 700 m 1
 105 700 l 1
 95 500 l 1
 55 500 l 1
 55 700 l 1
EndSplineSet
EndChar

StartChar: one
Encoding: 49 49 64
GlifName: one
Width: 296
Flags: MW
LayerCount: 2
Fore
SplineSet
191 650 m 5
 241 650 l 5
 241 0 l 5
 191 0 l 5
 191 500 l 5
 35 500 l 5
 35 543 l 5
 112 543 l 6
 164 543 191 557.976470588 191 610 c 6
 191 650 l 5
EndSplineSet
EndChar

StartChar: exclam
Encoding: 33 33 65
GlifName: exclam
Width: 160
Flags: MW
LayerCount: 2
Fore
SplineSet
112 0 m 1
 48 0 l 1
 48 70 l 1
 112 70 l 1
 112 0 l 1
101 143 m 5
 59 143 l 5
 55 650 l 1
 105 650 l 1
 101 143 l 5
EndSplineSet
Substitution2: "'ss03' Style Set 3 in Latin lookup 2-1" exclam.ss03
EndChar

StartChar: zero
Encoding: 48 48 66
GlifName: zero
Width: 545
Flags: MW
LayerCount: 2
Fore
SplineSet
45 317 m 4
 45 532.785272112 129.562559646 660 273 660 c 4
 415.790221921 660 500 532.757912418 500 317 c 4
 500 112.028224199 416.164901867 -8 273 -8 c 4
 129.185862095 -8 45 112.001777109 45 317 c 4
447 317 m 4
 447 512.373603891 389.023914938 610 273 610 c 4
 156.279703621 610 98 512.423124794 98 317 c 4
 98 132.9510355 155.877931682 42 273 42 c 4
 389.423115267 42 447 132.99795001 447 317 c 4
EndSplineSet
EndChar

StartChar: nine
Encoding: 57 57 67
GlifName: nine
Width: 537
Flags: HW
LayerCount: 2
Fore
SplineSet
492 325 m 0
 492 114.665782996 402.855497042 -8 250 -8 c 0
 145.517645272 -8 71.1456653887 52.7811612244 53 153 c 1
 106 153 l 1
 119.758064748 80.6947184755 169.956618446 42 250 42 c 0
 376.945001346 42 439 134.918331317 439 325 c 0
 439 336.537673427 438.275071956 347.89629003 436.825195312 359.076171875 c 1
 405.686934041 277.243484943 332.206100584 226 246 226 c 0
 129.078151856 226 45 316.770940063 45 443 c 0
 45 569.229059937 129.078151856 660 246 660 c 0
 396.194764894 660 492 529.533521299 492 325 c 0
417.357421875 442.943359375 m 0
 417.357421875 537.455469497 345.252457393 609 250 609 c 0
 158.029503373 609 98 543.441463421 98 443 c 0
 98 342.558536579 158.029503373 277 250 277 c 0
 349.711539872 277 417.357421875 344.074317838 417.357421875 442.943359375 c 0
EndSplineSet
EndChar

StartChar: seven
Encoding: 55 55 68
GlifName: seven
Width: 542
Flags: HMW
LayerCount: 2
Fore
SplineSet
238 0 m 1
 247.283154122 295 354.967741935 432 497 592 c 1
 497 650 l 1
 45 650 l 1
 45 602 l 1
 446 602 l 1
 322.814035088 455 212.498245614 343 184 0 c 1
 238 0 l 1
EndSplineSet
EndChar

StartChar: two
Encoding: 50 50 69
GlifName: two
Width: 517
Flags: HMW
LayerCount: 2
Fore
SplineSet
97 48 m 1
 468 48 l 1
 468 0 l 1
 45 0 l 1
 45 14 l 1
 45 159 159 217 261 273 c 0
 344 319 419 363 419 454 c 0
 419 552 359 608 255 608 c 0
 163 608 102 550 98 459 c 1
 45 459 l 1
 53 577 139 658 255 658 c 0
 385 658 472 577 472 454 c 0
 472 346 384 286 293 234 c 0
 197 179 97 133 97 48 c 1
EndSplineSet
EndChar

StartChar: eight
Encoding: 56 56 70
GlifName: eight
Width: 517
Flags: HMW
LayerCount: 2
Fore
SplineSet
258 658 m 1
 258 608 l 1
 168.979225852 608 118 560.661743164 118 478 c 0
 118 398.047070313 166.971147017 352 252 352 c 1
 252 312 l 1
 139.697487356 312 65 378.308969351 65 478 c 0
 65 586.229469477 141.953978902 658 258 658 c 1
258 42 m 1
 258 -8 l 1
 129.928484488 -8 45 63.3718053537 45 171 c 0
 45 273.693772536 127.686523437 342 252 342 c 1
 252 302 l 1
 154.280273438 302 98 254.125664992 98 171 c 0
 98 88.974116399 156.261972403 42 258 42 c 1
265 352 m 1
 265 302 l 1
 252 302 l 1
 252 352 l 1
 265 352 l 1
258 658 m 1
 374.647295818 658 452 586.229469477 452 478 c 0
 452 378.308969351 377.302512644 312 265 312 c 1
 265 352 l 1
 350.028852983 352 399 398.047070313 399 478 c 0
 399 560.661743164 347.65663682 608 258 608 c 1
 258 658 l 1
258 42 m 1
 360.37389027 42 419 88.974116399 419 171 c 0
 419 254.125664992 362.719726562 302 265 302 c 1
 265 342 l 1
 389.313476563 342 472 273.693772536 472 171 c 0
 472 63.3718053537 386.672790233 -8 258 -8 c 1
 258 42 l 1
EndSplineSet
EndChar

StartChar: five
Encoding: 53 53 71
GlifName: five
Width: 517
Flags: HW
LayerCount: 2
Fore
SplineSet
419 214 m 0
 419 100.305084746 360 42 257 42 c 0
 163 42 102 89.2868217054 98 164 c 1
 45 164 l 1
 53 62.1452513966 138 -8 257 -8 c 0
 385 -8 472 76.1140350877 472 215 c 0
 472 343.575 389.611374408 437 260 437 c 0
 188.695652174 437 131.652173913 408.168831169 96 363 c 1
 118 603 l 1
 449 603 l 1
 449 651 l 1
 75 651 l 1
 45 309 l 1
 94 309 l 1
 124 357 179 387 253 387 c 0
 360 387 419 319.97382199 419 214 c 0
EndSplineSet
EndChar

StartChar: six
Encoding: 54 54 72
GlifName: six
Width: 537
Flags: HW
LayerCount: 2
Fore
SplineSet
45 327 m 4
 45 537.334217004 134.144502958 660 287 660 c 4
 391.482354728 660 465.854334611 599.218838776 484 499 c 5
 431 499 l 5
 417.241935252 571.305281525 367.043381554 610 287 610 c 4
 160.054998654 610 98 517.081668683 98 327 c 4
 98 315.462326573 98.7249280442 304.10370997 100.174804688 292.923828125 c 5
 131.313065959 374.756515057 204.793899416 426 291 426 c 4
 407.921848144 426 492 335.229059937 492 209 c 4
 492 82.7709400634 407.921848144 -8 291 -8 c 4
 140.805235106 -8 45 122.466478701 45 327 c 4
119.642578125 209.056640625 m 4
 119.642578125 114.544530503 191.747542607 43 287 43 c 4
 378.970496627 43 439 108.558536579 439 209 c 4
 439 309.441463421 378.970496627 375 287 375 c 4
 187.288460128 375 119.642578125 307.925682162 119.642578125 209.056640625 c 4
EndSplineSet
EndChar

StartChar: a.ss01
Encoding: 256 -1 73
GlifName: a.ss01
Width: 552
Flags: HW
LayerCount: 2
Fore
SplineSet
497 500 m 5
 447 500 l 5
 447 0 l 1
 497 0 l 1
 497 500 l 5
480 252 m 0
 480 406.708984375 395.526208688 510 269 510 c 0
 134.697150735 510 45 406.688476562 45 252 c 0
 45 96.1123046875 134.697150735 -8 269 -8 c 0
 395.526208688 -8 480 96.0908203125 480 252 c 0
98 252 m 0
 98 383.505859375 161.991033381 460 272 460 c 0
 382.671622984 460 447 383.540039062 447 252 c 0
 447 119.194335938 382.671622984 42 272 42 c 0
 161.991033381 42 98 119.229492188 98 252 c 0
EndSplineSet
EndChar

StartChar: l.ss02
Encoding: 257 -1 74
GlifName: l.ss02
Width: 221
Flags: HW
LayerCount: 2
Fore
SplineSet
186 48 m 1
 186 0 l 1
 174 0 l 2
 117.221679688 0 55 27.708984375 55 118 c 2
 55 700 l 1
 105 700 l 1
 105 124 l 2
 105 62.4443359375 135.701171875 48 175 48 c 2
 186 48 l 1
EndSplineSet
EndChar

StartChar: i.ss03
Encoding: 258 -1 75
GlifName: i.ss03
Width: 160
Flags: HW
LayerCount: 2
Fore
SplineSet
38 619 m 4
 38 642 57 661 80 661 c 4
 103 661 122 642 122 619 c 4
 122 596 103 577 80 577 c 4
 57 577 38 596 38 619 c 4
55 500 m 1
 105 500 l 1
 105 0 l 1
 55 0 l 1
 55 500 l 1
EndSplineSet
EndChar

StartChar: j.ss03
Encoding: 259 -1 76
GlifName: j.ss03
Width: 160
Flags: HW
LayerCount: 2
Fore
SplineSet
38 619 m 4
 38 642 57 661 80 661 c 4
 103 661 122 642 122 619 c 4
 122 596 103 577 80 577 c 4
 57 577 38 596 38 619 c 4
-36 -106 m 1
 -5 -106 l 2
 29 -106 55 -92 55 -30 c 2
 55 500 l 1
 105 500 l 1
 105 -36 l 2
 105 -126 48 -154 -4 -154 c 2
 -36 -154 l 1
 -36 -106 l 1
EndSplineSet
EndChar

StartChar: G.ss04
Encoding: 261 -1 77
GlifName: G_.ss04
Width: 647
Flags: HW
LayerCount: 2
Fore
SplineSet
45 327 m 0
 45 527 159 660 331 660 c 0
 476 660 582 570 592 439 c 1
 539 439 l 1
 534 544 453 610 331 610 c 0
 183 610 98 507 98 327 c 0
 98 146 182 42 329 42 c 0
 459 42 544 137 544 284 c 1
 320 284 l 1
 320 332 l 1
 592 332 l 1
 592 291 l 2
 592 113 486 -8 329 -8 c 0
 158 -8 45 126 45 327 c 0
EndSplineSet
EndChar

StartChar: R.ss05
Encoding: 262 -1 78
GlifName: R_.ss05
Width: 559
Flags: HW
LayerCount: 2
Fore
SplineSet
357 301 m 1
 509 0 l 1
 452 0 l 1
 299 301 l 1
 357 301 l 1
312 602 m 2
 105 602 l 1
 105 327 l 1
 312 327 l 2
 406 327 461 376 461 461 c 0
 461 550 406 602 312 602 c 2
324 279 m 2
 105 279 l 1
 105 0 l 1
 55 0 l 1
 55 650 l 1
 317 650 l 2
 435 650 514 575 514 461 c 0
 514 352.011627907 437.802083333 279 324 279 c 2
EndSplineSet
EndChar

StartChar: J.ss06
Encoding: 263 -1 79
GlifName: J_.ss06
Width: 519
Flags: HW
LayerCount: 2
Fore
SplineSet
100 179 m 5
 110 92.3601491478 168.814494681 42 260 42 c 0
 360.525615985 42 419 102.680273438 419 207 c 2
 419 650 l 1
 469 650 l 1
 469 207 l 2
 469 78.0930288462 385.309735365 -8 260 -8 c 0
 144.074115954 -8 60 66.8651802884 50 179 c 5
 100 179 l 5
EndSplineSet
EndChar

StartChar: y.ss07
Encoding: 264 -1 80
GlifName: y.ss07
Width: 531
Flags: HW
LayerCount: 2
Fore
SplineSet
164 -174 m 1
 238 19 l 1
 35 500 l 1
 92 500 l 1
 268 85 l 1
 438 500 l 1
 496 500 l 1
 219 -174 l 1
 164 -174 l 1
EndSplineSet
EndChar

StartChar: t.ss08
Encoding: 265 -1 81
GlifName: t.ss08
Width: 312
Flags: HW
LayerCount: 2
Fore
SplineSet
35 500 m 1
 277 500 l 1
 277 452 l 1
 35 452 l 1
 35 500 l 1
131 0 m 1
 131 610 l 1
 181 610 l 1
 181 0 l 1
 131 0 l 1
EndSplineSet
EndChar

StartChar: exclam.ss03
Encoding: 266 -1 82
GlifName: exclam.ss03
Width: 160
Flags: HW
LayerCount: 2
Fore
SplineSet
38 34 m 4
 38 57 57 76 80 76 c 4
 103 76 122 57 122 34 c 4
 122 11 103 -8 80 -8 c 4
 57 -8 38 11 38 34 c 4
101 143 m 1
 59 143 l 1
 55 650 l 1
 105 650 l 1
 101 143 l 1
EndSplineSet
EndChar

StartChar: comma.ss03
Encoding: 267 -1 83
GlifName: comma.ss03
Width: 160
Flags: HW
LayerCount: 2
Fore
SplineSet
38 34 m 0
 38 57 57 76 80 76 c 0
 103 76 122 57 122 34 c 2
 122 -17 l 2
 122 -76.4915254237 85.3944954128 -95 52 -95 c 2
 40 -95 l 1
 40 -71 l 1
 51 -71 l 2
 79.9 -71 102 -59.9473684211 102 -11 c 2
 102 -1.68361740581 l 1
 95.5810903188 -5.68139137499 88.0346092252 -8 80 -8 c 0
 57 -8 38 11 38 34 c 0
EndSplineSet
EndChar

StartChar: period.ss03
Encoding: 268 -1 84
GlifName: period.ss03
Width: 160
Flags: HW
LayerCount: 2
Fore
SplineSet
38 34 m 4
 38 57 57 76 80 76 c 4
 103 76 122 57 122 34 c 4
 122 11 103 -8 80 -8 c 4
 57 -8 38 11 38 34 c 4
EndSplineSet
EndChar

StartChar: colon.ss03
Encoding: 269 -1 85
GlifName: colon.ss03
Width: 160
Flags: HW
LayerCount: 2
Fore
SplineSet
38 447 m 4
 38 470 57 489 80 489 c 4
 103 489 122 470 122 447 c 4
 122 424 103 405 80 405 c 4
 57 405 38 424 38 447 c 4
38 34 m 4
 38 57 57 76 80 76 c 4
 103 76 122 57 122 34 c 4
 122 11 103 -8 80 -8 c 4
 57 -8 38 11 38 34 c 4
EndSplineSet
EndChar

StartChar: semicolon.ss03
Encoding: 270 -1 86
GlifName: semicolon.ss03
Width: 160
Flags: HW
LayerCount: 2
Fore
SplineSet
38 447 m 0
 38 470 57 489 80 489 c 0
 103 489 122 470 122 447 c 0
 122 424 103 405 80 405 c 0
 57 405 38 424 38 447 c 0
38 34 m 0
 38 57 57 76 80 76 c 0
 103 76 122 57 122 34 c 2
 122 -17 l 2
 122 -76.4915254237 85.3944954128 -95 52 -95 c 2
 40 -95 l 1
 40 -71 l 1
 51 -71 l 2
 79.9 -71 102 -59.9473684211 102 -11 c 2
 102 -1.68361740581 l 1
 95.5810903188 -5.68139137499 88.0346092252 -8 80 -8 c 0
 57 -8 38 11 38 34 c 0
EndSplineSet
EndChar

StartChar: numbersign
Encoding: 35 35 87
GlifName: numbersign
Width: 688
Flags: HW
LayerCount: 2
Fore
SplineSet
583 221 m 1
 583 173 l 1
 35 173 l 1
 35 221 l 1
 583 221 l 1
653 481 m 1
 653 433 l 1
 105 433 l 1
 105 481 l 1
 653 481 l 1
577 650 m 1
 633 650 l 1
 365 0 l 1
 309 0 l 1
 577 650 l 1
323 650 m 1
 379 650 l 1
 111 0 l 1
 55 0 l 1
 323 650 l 1
EndSplineSet
EndChar

StartChar: slash
Encoding: 47 47 88
GlifName: slash
Width: 394
Flags: HW
LayerCount: 2
Fore
SplineSet
303 650 m 1
 359 650 l 1
 91 0 l 1
 35 0 l 1
 303 650 l 1
EndSplineSet
EndChar

StartChar: backslash
Encoding: 92 92 89
GlifName: backslash
Width: 394
Flags: HW
LayerCount: 2
Fore
SplineSet
91 650 m 1
 359 0 l 1
 303 0 l 1
 35 650 l 1
 91 650 l 1
EndSplineSet
EndChar

StartChar: dollar
Encoding: 36 36 90
GlifName: dollar
Width: 570
Flags: HW
LayerCount: 2
Fore
SplineSet
263 750 m 1
 313 750 l 1
 313 -120 l 5
 263 -120 l 5
 263 750 l 1
320 296 m 2
 245 306 l 2
 119.579204926 322.722772676 50 377.129104393 50 473 c 0
 50 586.752441407 136.476369395 659 277 659 c 0
 411.640835014 659 500.897912466 583.992439319 513 460 c 1
 461 460 l 1
 444.83525029 560.390403053 387.359989873 607 276 607 c 0
 169.666666666 607 100 554.943600773 100 475 c 0
 100 409.286087391 150.454302936 373.139426275 249 360 c 2
 324 350 l 2
 458.382193171 332.082374244 525 275.452566964 525 172 c 0
 525 62.7687557445 435.59640067 -8 300 -8 c 0
 149.914181593 -8 58.1144245426 71.4817172666 45 190 c 1
 99 190 l 1
 115.557334499 89.4208446818 180.130679481 43 301 43 c 0
 405.400548135 43 475 93.4789533944 475 172 c 0
 475 240.889322917 423.075532206 282.256595706 320 296 c 2
EndSplineSet
EndChar

StartChar: bar
Encoding: 124 124 91
GlifName: bar
Width: 160
Flags: HW
LayerCount: 2
Fore
SplineSet
55 801 m 1
 105 801 l 1
 105 -200 l 5
 55 -200 l 5
 55 801 l 1
EndSplineSet
EndChar

StartChar: percent
Encoding: 37 37 92
GlifName: percent
Width: 834
Flags: HW
LayerCount: 2
Fore
SplineSet
484 192 m 0
 484 310.730150799 547.255784255 390 642 390 c 0
 736.132005775 390 799 310.714412245 799 192 c 0
 799 72.0863882212 736.132005775 -8 642 -8 c 0
 547.255784255 -8 484 72.0698617788 484 192 c 0
746 192 m 0
 746 285.571476863 707.752485795 340 642 340 c 0
 575.59702621 340 537 285.595797025 537 192 c 0
 537 97.1388113843 575.59702621 42 642 42 c 0
 707.752485795 42 746 97.1639229914 746 192 c 0
523 650 m 1
 579 650 l 1
 311 0 l 1
 255 0 l 1
 523 650 l 1
35 461 m 0
 35 579.730150799 98.2557842548 659 193 659 c 0
 287.132005775 659 350 579.714412245 350 461 c 0
 350 341.086388221 287.132005775 261 193 261 c 0
 98.2557842548 261 35 341.069861779 35 461 c 0
297 461 m 0
 297 554.571476863 258.752485795 609 193 609 c 0
 126.59702621 609 88 554.595797025 88 461 c 0
 88 366.138811384 126.59702621 311 193 311 c 0
 258.752485795 311 297 366.163922991 297 461 c 0
EndSplineSet
EndChar

StartChar: less
Encoding: 60 60 93
GlifName: less
Width: 570
Flags: HW
LayerCount: 2
Fore
SplineSet
535 500 m 5
 535 444 l 5
 101 268 l 5
 535 98 l 5
 535 40 l 5
 35 242 l 5
 35 298 l 5
 535 500 l 5
EndSplineSet
EndChar

StartChar: greater
Encoding: 62 62 94
GlifName: greater
Width: 570
Flags: HW
LayerCount: 2
Fore
SplineSet
35 40 m 5
 35 96 l 5
 469 272 l 5
 35 442 l 5
 35 500 l 5
 535 298 l 5
 535 242 l 5
 35 40 l 5
EndSplineSet
EndChar

StartChar: question
Encoding: 63 63 95
GlifName: question
Width: 517
Flags: HW
LayerCount: 2
Fore
SplineSet
235 143 m 1
 235 241 289 286 339 329 c 4
 381 365 419 400 419 464 c 0
 419 556 359 608 255 608 c 0
 163 608 102 550 98 459 c 1
 45 459 l 1
 53 577 139 658 255 658 c 0
 385 658 472 581 472 464 c 0
 472 378 416 335 365 289 c 4
 323 251 285 211 285 143 c 1
 235 143 l 1
291 0 m 1
 227 0 l 1
 227 70 l 1
 291 70 l 1
 291 0 l 1
EndSplineSet
Substitution2: "'ss03' Style Set 3 in Latin lookup 2-1" question.ss03
EndChar

StartChar: question.ss03
Encoding: 271 -1 96
GlifName: question.ss03
Width: 517
Flags: HW
LayerCount: 2
Fore
SplineSet
217 34 m 0
 217 57 236 76 259 76 c 0
 282 76 301 57 301 34 c 0
 301 11 282 -8 259 -8 c 0
 236 -8 217 11 217 34 c 0
235 143 m 1
 235 241 289 286 339 329 c 0
 381 365 419 400 419 464 c 0
 419 556 359 608 255 608 c 0
 163 608 102 550 98 459 c 1
 45 459 l 1
 53 577 139 658 255 658 c 0
 385 658 472 581 472 464 c 0
 472 378 416 335 365 289 c 0
 323 251 285 211 285 143 c 1
 235 143 l 1
EndSplineSet
EndChar

StartChar: parenleft
Encoding: 40 40 97
GlifName: parenleft
Width: 231
Flags: HW
LayerCount: 2
Fore
SplineSet
216 -94 m 5
 165 -94 l 5
 90.199139011 -19.4860920904 35 116.459010627 35 297 c 4
 35 477.540989373 90.199139011 613.48609209 165 688 c 5
 216 688 l 5
 130.359544631 606.94426063 88 488.582582145 88 297 c 4
 88 105.417417855 130.359544631 -12.9442606298 216 -94 c 5
EndSplineSet
EndChar

StartChar: parenright
Encoding: 41 41 98
GlifName: parenright
Width: 231
Flags: HW
LayerCount: 2
Fore
SplineSet
5 688 m 5
 56 688 l 5
 130.800860989 613.48609209 186 477.540989373 186 297 c 4
 186 116.459010627 130.800860989 -19.4860920904 56 -94 c 5
 5 -94 l 5
 90.6404553691 -12.9442606298 133 105.417417855 133 297 c 4
 133 488.582582145 90.6404553691 606.94426063 5 688 c 5
EndSplineSet
EndChar

StartChar: bracketleft
Encoding: 91 91 99
GlifName: bracketleft
Width: 230
Flags: HW
LayerCount: 2
Fore
SplineSet
95 642 m 5
 215 642 l 5
 215 690 l 5
 45 690 l 5
 45 -90 l 5
 215 -90 l 5
 215 -42 l 5
 95 -42 l 5
 95 642 l 5
EndSplineSet
EndChar

StartChar: bracketright
Encoding: 93 93 100
GlifName: bracketright
Width: 230
Flags: HW
LayerCount: 2
Fore
SplineSet
135 -42 m 5
 15 -42 l 5
 15 -90 l 5
 185 -90 l 5
 185 690 l 5
 15 690 l 5
 15 642 l 5
 135 642 l 5
 135 -42 l 5
EndSplineSet
EndChar

StartChar: underscore
Encoding: 95 95 101
Width: 562
Flags: HW
LayerCount: 2
Fore
SplineSet
35 0 m 1
 527 0 l 1
 527 -48 l 1
 35 -48 l 1
 35 0 l 1
EndSplineSet
EndChar

StartChar: grave
Encoding: 96 96 102
Width: 292
Flags: HW
LayerCount: 2
Fore
SplineSet
55 700 m 1
 118 700 l 1
 230 540 l 1
 187 540 l 1
 55 700 l 1
EndSplineSet
EndChar

StartChar: asterisk
Encoding: 42 42 103
Width: 528
Flags: HW
LayerCount: 2
Fore
SplineSet
239 700 m 1
 289 700 l 1
 286.858147393 477.571116744 l 1
 494.038085938 551.030273438 l 1
 509.490234375 503.478515625 l 1
 301.852264803 434.37624921 l 1
 431.170898438 262.440429688 l 1
 390.721679688 233.05078125 l 1
 263.42373227 409.686375963 l 1
 137.279296875 233.051757812 l 1
 96.828125 262.439453125 l 1
 225.80718718 435.493696414 l 1
 18.5107421875 503.477539062 l 1
 33.9609375 551.030273438 l 1
 241.131451619 478.651247205 l 1
 239 700 l 1
EndSplineSet
EndChar

StartChar: asterisk.ss09
Encoding: 272 -1 104
Width: 658
Flags: HWO
LayerCount: 2
Fore
SplineSet
304 650 m 1
 354 650 l 1
 352 364 l 1
 598 509 l 1
 623 466 l 1
 374 325 l 1
 623 184 l 1
 598 141 l 1
 352 286 l 1
 354 0 l 1
 304 0 l 1
 306 286 l 1
 60 141 l 1
 35 184 l 1
 284 325 l 1
 35 466 l 1
 60 509 l 1
 306 364 l 1
 304 650 l 1
EndSplineSet
EndChar
